<svg width="26" height="24" viewBox="0 0 26 24" fill="none" xmlns="http://www.w3.org/2000/svg">
<path d="M25.5 6.74458C25.5 10.4696 22.4833 13.4895 18.7637 13.4895C15.0425 13.4895 12.0268 10.4692 12.0268 6.74458C12.0268 3.0196 15.0425 0 18.7637 0C22.4833 0 25.5 3.0196 25.5 6.74458Z" fill="#F15D46"/>
<path d="M4.82357 7.84379C5.02273 7.84379 5.21734 7.86171 5.41096 7.88843C5.33954 7.55794 5.30332 7.2208 5.30292 6.88266C5.30292 4.22666 7.453 2.07404 10.1058 2.07404C12.6865 2.07404 14.7854 4.1136 14.8977 6.66925C15.4259 6.18738 16.1148 5.92036 16.8294 5.92054C17.2078 5.92054 17.5826 5.99518 17.9322 6.14019C18.2818 6.2852 18.5995 6.49775 18.867 6.76569C19.1346 7.03363 19.3468 7.35171 19.4916 7.70178C19.6363 8.05184 19.7108 8.42703 19.7107 8.80591C19.7105 9.15768 19.6454 9.50638 19.5187 9.83449C19.7399 9.78969 19.965 9.7671 20.1907 9.76705C22.0479 9.76705 23.5527 11.2739 23.5527 13.1327C23.5527 14.9917 22.0479 16.4986 20.191 16.4986H4.82325C2.43627 16.4986 0.5 14.5607 0.5 12.1712C0.5 9.78171 2.43627 7.84379 4.82325 7.84379" fill="#D8D8D8"/>
<path d="M15.9459 18.8845L16.0836 18.5163C16.1161 18.4293 16.1312 18.3367 16.128 18.2438C16.1248 18.1509 16.1033 18.0596 16.0649 17.975C16.0264 17.8904 15.9717 17.8142 15.9038 17.7508C15.8359 17.6874 15.7562 17.638 15.6693 17.6054C15.5824 17.5728 15.4899 17.5577 15.3971 17.5609C15.3043 17.5641 15.2131 17.5856 15.1286 17.6241C15.0441 17.6626 14.968 17.7174 14.9046 17.7854C14.8413 17.8533 14.792 17.9331 14.7594 18.0201L14.6221 18.389C14.5873 18.4765 14.5703 18.57 14.5721 18.6642C14.5739 18.7584 14.5945 18.8512 14.6326 18.9373C14.6707 19.0234 14.7256 19.101 14.7941 19.1656C14.8625 19.2302 14.9432 19.2805 15.0313 19.3135C15.1194 19.3464 15.2132 19.3615 15.3072 19.3577C15.4012 19.3539 15.4935 19.3314 15.5786 19.2914C15.6638 19.2515 15.7402 19.1949 15.8033 19.125C15.8663 19.0552 15.9148 18.9734 15.9459 18.8845ZM14.1548 23.6785L14.6374 22.3876C14.6601 22.3268 14.6707 22.2621 14.6684 22.1972C14.6662 22.1323 14.6512 22.0685 14.6243 22.0094C14.5974 21.9503 14.5591 21.8971 14.5117 21.8528C14.4642 21.8085 14.4085 21.774 14.3478 21.7513L13.9488 21.6014C13.8262 21.5557 13.6904 21.5605 13.5714 21.6149C13.4523 21.6692 13.3597 21.7687 13.3139 21.8914L12.8313 23.1832C12.8085 23.244 12.798 23.3086 12.8002 23.3735C12.8025 23.4383 12.8174 23.5021 12.8443 23.5611C12.8712 23.6202 12.9094 23.6733 12.9568 23.7175C13.0042 23.7618 13.0599 23.7962 13.1206 23.8189L13.5196 23.9684C13.5803 23.9913 13.6449 24.0019 13.7097 23.9997C13.7745 23.9975 13.8383 23.9825 13.8973 23.9555C13.9563 23.9286 14.0095 23.8903 14.0536 23.8427C14.0978 23.7952 14.1322 23.7393 14.1548 23.6785ZM11.2282 20.7413L11.8078 19.1885C11.8306 19.1277 11.8412 19.063 11.839 18.998C11.8367 18.9331 11.8217 18.8693 11.7948 18.8102C11.7679 18.7511 11.7297 18.6979 11.6822 18.6536C11.6347 18.6093 11.579 18.5749 11.5182 18.5522L11.1192 18.403C11.0585 18.3802 10.9939 18.3696 10.9291 18.3718C10.8643 18.374 10.8005 18.3891 10.7415 18.416C10.6825 18.4429 10.6294 18.4813 10.5852 18.5288C10.541 18.5763 10.5066 18.6321 10.484 18.6929L9.90443 20.2454C9.88168 20.3062 9.87112 20.3709 9.87336 20.4357C9.87559 20.5006 9.89057 20.5644 9.91743 20.6234C9.9443 20.6825 9.98253 20.7357 10.0299 20.7799C10.0773 20.8242 10.133 20.8587 10.1937 20.8814L10.593 21.0313C10.7157 21.0772 10.8515 21.0724 10.9706 21.018C11.0897 20.9636 11.1824 20.8641 11.2282 20.7413ZM10.3525 23.0848L10.4411 22.847C10.4999 22.6729 10.4887 22.4827 10.41 22.3166C10.3312 22.1505 10.191 22.0217 10.0191 21.9572C9.84715 21.8927 9.6569 21.8978 9.48859 21.9712C9.32028 22.0447 9.1871 22.1808 9.11723 22.3508L9.02806 22.5893C8.96242 22.7651 8.96925 22.9599 9.04703 23.1307C9.12481 23.3015 9.26718 23.4344 9.44281 23.5001C9.61845 23.5658 9.81297 23.559 9.98357 23.4811C10.1542 23.4032 10.2869 23.2607 10.3525 23.0848ZM8.73225 16.9108L8.96786 16.2803C9.00034 16.1933 9.01538 16.1007 9.01212 16.0079C9.00886 15.915 8.98737 15.8237 8.94887 15.7392C8.91037 15.6547 8.85562 15.5786 8.78774 15.5152C8.71987 15.4519 8.64019 15.4025 8.55327 15.37C8.46634 15.3375 8.37388 15.3224 8.28114 15.3257C8.1884 15.329 8.09722 15.3505 8.01279 15.389C7.92836 15.4276 7.85234 15.4824 7.78907 15.5503C7.7258 15.6183 7.67651 15.6981 7.64404 15.7851L7.40875 16.4152C7.37199 16.5031 7.35333 16.5975 7.35389 16.6928C7.35445 16.7881 7.37421 16.8823 7.41201 16.9698C7.4498 17.0572 7.50485 17.1362 7.57384 17.2018C7.64283 17.2675 7.72435 17.3185 7.81351 17.3519C7.90267 17.3852 7.99764 17.4002 8.09273 17.3959C8.18782 17.3917 8.28107 17.3682 8.36689 17.327C8.4527 17.2858 8.52933 17.2276 8.59217 17.1561C8.655 17.0845 8.70276 17.0009 8.73258 16.9104M7.10481 21.2691L7.68439 19.7173C7.70724 19.6564 7.71788 19.5917 7.7157 19.5267C7.71352 19.4618 7.69857 19.3979 7.6717 19.3387C7.64483 19.2796 7.60656 19.2263 7.5591 19.1819C7.51163 19.1376 7.4559 19.1031 7.39509 19.0803L6.99579 18.9311C6.8731 18.8853 6.73727 18.8901 6.61811 18.9445C6.49895 18.9988 6.40621 19.0983 6.36024 19.2211L5.78099 20.7736C5.75825 20.8344 5.74771 20.899 5.74996 20.9639C5.75222 21.0288 5.76722 21.0926 5.79412 21.1517C5.82102 21.2107 5.85928 21.2639 5.90673 21.3081C5.95417 21.3524 6.00986 21.3868 6.07061 21.4095L6.46893 21.5594C6.59167 21.6053 6.72758 21.6006 6.84681 21.5462C6.96604 21.4918 7.05884 21.3923 7.10481 21.2694" fill="#BFBFBF"/>
</svg>
